name C:\Users\u0101727\Documents\MyRepositories\predictivesimulations\OpenSimModel\subject1\GRF\gait_15.mot
datacolumns 19
datarows 20
range 2.71600000 2.73500000
endheader

                time	     ground_force_vx	     ground_force_vy	     ground_force_vz	     ground_force_px	     ground_force_py	     ground_force_pz	   1_ground_force_vx	   1_ground_force_vy	   1_ground_force_vz	   1_ground_force_px	   1_ground_force_py	   1_ground_force_pz	     ground_torque_x	     ground_torque_y	     ground_torque_z	   1_ground_torque_x	   1_ground_torque_y	   1_ground_torque_z	
          2.71600000	        -27.87672420	        181.38585731	        -18.63182353	          0.35229636	          0.00000000	          0.22140977	        119.06754707	        536.45428481	          4.27892460	         -0.17338300	          0.00000000	          0.30195939	          0.00000000	         -0.13480700	          0.00000000	          0.00000000	          2.08350983	          0.00000000	
          2.71700000	        -28.89564411	        186.62921655	        -18.92424162	          0.35261306	          0.00000000	          0.22141317	        118.84233779	        531.94507495	          4.50364166	         -0.17324935	          0.00000000	          0.30192569	          0.00000000	         -0.15008627	          0.00000000	          0.00000000	          2.05937944	          0.00000000	
          2.71800000	        -29.92853825	        191.89110978	        -19.20615087	          0.35292791	          0.00000000	          0.22141599	        118.58880513	        527.36624214	          4.72790506	         -0.17311554	          0.00000000	          0.30189204	          0.00000000	         -0.16576145	          0.00000000	          0.00000000	          2.03512403	          0.00000000	
          2.71900000	        -30.97479984	        197.16679975	        -19.47681425	          0.35324124	          0.00000000	          0.22141814	        118.30672062	        522.71842685	          4.95153497	         -0.17298155	          0.00000000	          0.30185844	          0.00000000	         -0.18182767	          0.00000000	          0.00000000	          2.01074941	          0.00000000	
          2.72000000	        -32.03378738	        202.45182027	        -19.73549509	          0.35355334	          0.00000000	          0.22141955	        117.99587417	        518.00232007	          5.17434571	         -0.17284737	          0.00000000	          0.30182490	          0.00000000	         -0.19828072	          0.00000000	          0.00000000	          1.98626090	          0.00000000	
          2.72100000	        -33.10482208	        207.74200742	        -19.98146120	          0.35386451	          0.00000000	          0.22142016	        117.65607293	        513.21867119	          5.39614531	         -0.17271299	          0.00000000	          0.30179141	          0.00000000	         -0.21511692	          0.00000000	          0.00000000	          1.96166361	          0.00000000	
          2.72200000	        -34.18718751	        213.03350303	        -20.21399334	          0.35417502	          0.00000000	          0.22141993	        117.28714183	        508.36829436	          5.61673529	         -0.17257838	          0.00000000	          0.30175799	          0.00000000	         -0.23233291	          0.00000000	          0.00000000	          1.93696257	          0.00000000	
          2.72300000	        -35.28013079	        218.32273748	        -20.43239484	          0.35448514	          0.00000000	          0.22141880	        116.88892352	        503.45207242	          5.83591079	         -0.17244355	          0.00000000	          0.30172463	          0.00000000	         -0.24992531	          0.00000000	          0.00000000	          1.91216298	          0.00000000	
          2.72400000	        -36.38286512	        223.60640067	        -20.63599977	          0.35479510	          0.00000000	          0.22141676	        116.46127686	        498.47095925	          6.05346070	         -0.17230845	          0.00000000	          0.30169135	          0.00000000	         -0.26789044	          0.00000000	          0.00000000	          1.88727045	          0.00000000	
          2.72500000	        -37.49457311	        228.88140859	        -20.82417894	          0.35510515	          0.00000000	          0.22141377	        116.00407603	        493.42598171	          6.26916876	         -0.17217310	          0.00000000	          0.30165815	          0.00000000	         -0.28622409	          0.00000000	          0.00000000	          1.86229127	          0.00000000	
          2.72600000	        -38.61441029	        234.14487027	        -20.99634371	          0.35541550	          0.00000000	          0.22140984	        115.51721192	        488.31824067	          6.48281585	         -0.17203746	          0.00000000	          0.30162502	          0.00000000	         -0.30492122	          0.00000000	          0.00000000	          1.83723259	          0.00000000	
          2.72700000	        -39.74150880	        239.39405768	        -21.15194800	          0.35572636	          0.00000000	          0.22140495	        115.00059394	        483.14891120	          6.69418206	         -0.17190151	          0.00000000	          0.30159198	          0.00000000	         -0.32397588	          0.00000000	          0.00000000	          1.81210235	          0.00000000	
          2.72800000	        -40.87498116	        244.62638003	        -21.29048887	          0.35603791	          0.00000000	          0.22139911	        114.45415141	        477.91924207	          6.90304705	         -0.17176526	          0.00000000	          0.30155901	          0.00000000	         -0.34338103	          0.00000000	          0.00000000	          1.78690927	          0.00000000	
          2.72900000	        -42.01392422	        249.83936357	        -21.41150617	          0.35635033	          0.00000000	          0.22139234	        113.87783511	        472.63055448	          7.10918988	         -0.17162866	          0.00000000	          0.30152611	          0.00000000	         -0.36312845	          0.00000000	          0.00000000	          1.76166266	          0.00000000	
          2.73000000	        -43.15742297	        255.03063799	        -21.51458124	          0.35666377	          0.00000000	          0.22138466	        113.27161926	        467.28424064	          7.31238946	         -0.17149172	          0.00000000	          0.30149329	          0.00000000	         -0.38320857	          0.00000000	          0.00000000	          1.73637222	          0.00000000	
          2.73100000	        -44.30455469	        260.19792972	        -21.59933506	          0.35697838	          0.00000000	          0.22137609	        112.63550285	        461.88176277	          7.51242519	         -0.17135440	          0.00000000	          0.30146053	          0.00000000	         -0.40361030	          0.00000000	          0.00000000	          1.71104804	          0.00000000	
          2.73200000	        -45.45439399	        265.33906185	        -21.66542626	          0.35729430	          0.00000000	          0.22136667	        111.96950991	        456.42465218	          7.70907699	         -0.17121669	          0.00000000	          0.30142783	          0.00000000	         -0.42432101	          0.00000000	          0.00000000	          1.68570048	          0.00000000	
          2.73300000	        -46.60601845	        270.45195882	        -21.71254935	          0.35761164	          0.00000000	          0.22135644	        111.27368969	        450.91450712	          7.90212529	         -0.17107857	          0.00000000	          0.30139519	          0.00000000	         -0.44532669	          0.00000000	          0.00000000	          1.66033993	          0.00000000	
          2.73400000	        -47.75851513	        275.53465379	        -21.74043321	          0.35793052	          0.00000000	          0.22134543	        110.54811773	        445.35299017	          8.09135098	         -0.17094002	          0.00000000	          0.30136259	          0.00000000	         -0.46661218	          0.00000000	          0.00000000	          1.63497665	          0.00000000	
          2.73500000	        -48.91098763	        280.58529837	        -21.74884030	          0.35825105	          0.00000000	          0.22133370	        109.79289675	        439.74182648	          8.27653473	         -0.17080101	          0.00000000	          0.30133005	          0.00000000	         -0.48816137	          0.00000000	          0.00000000	          1.60962057	          0.00000000	
